{
  "accessors": [
    {
      "bufferView": 3,
      "componentType": 5126,
      "count": 5806,
      "max": [
        70.93900299072266,
        81.045166015625,
        26.811389923095703
      ],
      "min": [
        -70.93899536132813,
        -4.368128884379985e-06,
        -26.811382293701172
      ],
      "type": "VEC3"
    },
    {
      "bufferView": 3,
      "byteOffset": 69672,
      "componentType": 5126,
      "count": 5806,
      "max": [
        1.0,
        1.0,
        1.0
      ],
      "min": [
        -1.0,
        -1.0,
        -1.0
      ],
      "type": "VEC3"
    },
    {
      "bufferView": 2,
      "componentType": 5126,
      "count": 5806,
      "max": [
        70.93900299072266,
        14.343999862670898
      ],
      "min": [
        -70.93899536132813,
        -4.136000156402588
      ],
      "type": "VEC2"
    },
    {
      "bufferView": 1,
      "componentType": 5125,
      "count": 16764,
      "type": "SCALAR"
    },
    {
      "bufferView": 5,
      "componentType": 5126,
      "count": 4,
      "max": [
        2.5400006771087646,
        0.0,
        0.0,
        0.0,
        1.000000238418579,
        2.5400006771087646,
        0.0,
        0.0,
        1.6292072757551068e-07,
        0.0,
        2.5400006771087646,
        0.0,
        0.0,
        0.0,
        0.0,
        1.0
      ],
      "min": [
        -5.7119289868432215e-15,
        -1.000000238418579,
        -7.549791547489804e-08,
        0.0,
        0.0,
        6.5882434395676294e-15,
        -1.6292072757551068e-07,
        0.0,
        0.0,
        -7.549791547489804e-08,
        1.0,
        0.0,
        0.0,
        0.0,
        0.0,
        1.0
      ],
      "type": "MAT4"
    },
    {
      "bufferView": 0,
      "componentType": 5123,
      "count": 5806,
      "type": "VEC4"
    },
    {
      "bufferView": 4,
      "componentType": 5126,
      "count": 5806,
      "max": [
        1.0,
        0.0,
        0.0,
        0.0
      ],
      "min": [
        1.0,
        0.0,
        0.0,
        0.0
      ],
      "type": "VEC4"
    },
    {
      "bufferView": 6,
      "componentType": 5126,
      "count": 301,
      "max": [
        10.0
      ],
      "min": [
        0.0
      ],
      "type": "SCALAR"
    },
    {
      "bufferView": 7,
      "componentType": 5126,
      "count": 301,
      "max": [
        21.0009708404541,
        -4.012625464105274e-14,
        3.343434199203771e-14
      ],
      "min": [
        21.0009708404541,
        -8.268952471530977e-14,
        -5.169221170900351e-14
      ],
      "type": "VEC3"
    },
    {
      "bufferView": 6,
      "byteOffset": 1204,
      "componentType": 5126,
      "count": 301,
      "max": [
        10.0
      ],
      "min": [
        0.0
      ],
      "type": "SCALAR"
    },
    {
      "bufferView": 8,
      "componentType": 5126,
      "count": 301,
      "max": [
        6.38378239159465e-16,
        4.77671313351617e-16,
        -4.1908716479474075e-22,
        1.0
      ],
      "min": [
        3.3306690738754696e-16,
        1.3834505747698742e-16,
        -8.881785255792436e-16,
        1.0
      ],
      "type": "VEC4"
    },
    {
      "bufferView": 6,
      "byteOffset": 2408,
      "componentType": 5126,
      "count": 301,
      "max": [
        10.0
      ],
      "min": [
        0.0
      ],
      "type": "SCALAR"
    },
    {
      "bufferView": 8,
      "byteOffset": 4816,
      "componentType": 5126,
      "count": 301,
      "max": [
        0.7071067094802856,
        0.7071068286895752,
        0.7071068286895752,
        0.7071067094802856
      ],
      "min": [
        -0.49999985098838806,
        -0.49999988079071045,
        -0.49473682045936584,
        -0.4947367310523987
      ],
      "type": "VEC4"
    }
  ],
  "animations": [
    {
      "channels": [
        {
          "sampler": 0,
          "target": {
            "node": 8,
            "path": "translation"
          }
        },
        {
          "sampler": 1,
          "target": {
            "node": 8,
            "path": "rotation"
          }
        },
        {
          "sampler": 2,
          "target": {
            "node": 7,
            "path": "rotation"
          }
        }
      ],
      "name": "Armature|Armature|Take 001|BaseLayer",
      "samplers": [
        {
          "input": 7,
          "interpolation": "LINEAR",
          "output": 8
        },
        {
          "input": 9,
          "interpolation": "LINEAR",
          "output": 10
        },
        {
          "input": 11,
          "interpolation": "LINEAR",
          "output": 12
        }
      ]
    }
  ],
  "asset": {
    "extras": {
      "author": "WitchLord (https://sketchfab.com/WitchLord)",
      "license": "CC-BY-4.0 (http://creativecommons.org/licenses/by/4.0/)",
      "source": "https://sketchfab.com/3d-models/teste-4ca8826537da4bffb3a48540e70e2eb8",
      "title": "Teste"
    },
    "generator": "Sketchfab-12.97.0",
    "version": "2.0"
  },
  "bufferViews": [
    {
      "buffer": 0,
      "byteLength": 46448,
      "byteStride": 8,
      "name": "shortBufferViews",
      "target": 34962
    },
    {
      "buffer": 0,
      "byteLength": 67056,
      "byteOffset": 46448,
      "name": "floatBufferViews",
      "target": 34963
    },
    {
      "buffer": 0,
      "byteLength": 46448,
      "byteOffset": 113504,
      "byteStride": 8,
      "name": "floatBufferViews",
      "target": 34962
    },
    {
      "buffer": 0,
      "byteLength": 139344,
      "byteOffset": 159952,
      "byteStride": 12,
      "name": "floatBufferViews",
      "target": 34962
    },
    {
      "buffer": 0,
      "byteLength": 92896,
      "byteOffset": 299296,
      "byteStride": 16,
      "name": "floatBufferViews",
      "target": 34962
    },
    {
      "buffer": 0,
      "byteLength": 256,
      "byteOffset": 392192,
      "name": "floatBufferViews"
    },
    {
      "buffer": 0,
      "byteLength": 3612,
      "byteOffset": 392448,
      "name": "floatBufferViews"
    },
    {
      "buffer": 0,
      "byteLength": 3612,
      "byteOffset": 396060,
      "byteStride": 12,
      "name": "floatBufferViews"
    },
    {
      "buffer": 0,
      "byteLength": 9632,
      "byteOffset": 399672,
      "byteStride": 16,
      "name": "floatBufferViews"
    }
  ],
  "buffers": [
    {
      "byteLength": 409304,
      "uri": "scene.bin"
    }
  ],
  "images": [
    {
      "uri": "textures/Material_47_baseColor.jpeg"
    }
  ],
  "materials": [
    {
      "doubleSided": true,
      "name": "Material_47",
      "pbrMetallicRoughness": {
        "baseColorTexture": {
          "index": 0
        },
        "metallicFactor": 0.0,
        "roughnessFactor": 0.93007462163784
      }
    }
  ],
  "meshes": [
    {
      "name": "Box001_Material #47_0",
      "primitives": [
        {
          "attributes": {
            "JOINTS_0": 5,
            "NORMAL": 1,
            "POSITION": 0,
            "TEXCOORD_0": 2,
            "WEIGHTS_0": 6
          },
          "indices": 3,
          "material": 0,
          "mode": 4
        }
      ]
    }
  ],
  "nodes": [
    {
      "children": [
        1
      ],
      "matrix": [
        1.0,
        0.0,
        0.0,
        0.0,
        0.0,
        2.220446049250313e-16,
        -1.0,
        0.0,
        0.0,
        1.0,
        2.220446049250313e-16,
        0.0,
        0.0,
        0.0,
        0.0,
        1.0
      ],
      "name": "Sketchfab_model"
    },
    {
      "children": [
        2
      ],
      "matrix": [
        0.009999999776482582,
        0.0,
        0.0,
        0.0,
        0.0,
        0.0,
        0.009999999776482582,
        0.0,
        0.0,
        -0.009999999776482582,
        0.0,
        0.0,
        0.0,
        0.0,
        0.0,
        1.0
      ],
      "name": "83581caf9b584f9f96e773f520305363.fbx"
    },
    {
      "children": [
        3
      ],
      "name": "Object_2"
    },
    {
      "children": [
        4,
        12
      ],
      "name": "RootNode"
    },
    {
      "children": [
        5
      ],
      "name": "Armature",
      "rotation": [
        8.146034247147327e-08,
        0.0,
        0.0,
        1.0
      ],
      "scale": [
        2.5399999618530273,
        2.5399999618530273,
        2.5399999618530273
      ]
    },
    {
      "children": [
        6,
        11,
        10
      ],
      "name": "Object_5"
    },
    {
      "children": [
        7
      ],
      "name": "_rootJoint"
    },
    {
      "children": [
        8
      ],
      "name": "Bone001_00",
      "rotation": [
        -1.2617529837242146e-15,
        3.090862321641907e-08,
        0.7071068286895752,
        0.7071067094802856
      ]
    },
    {
      "children": [
        9
      ],
      "name": "Bone002_01",
      "rotation": [
        4.776714192307355e-16,
        4.77671313351617e-16,
        -8.881785255792436e-16,
        1.0
      ],
      "translation": [
        21.0009708404541,
        -4.012625464105274e-14,
        3.343434199203771e-14
      ]
    },
    {
      "name": "Bone002_end_02",
      "rotation": [
        3.308722450212111e-24,
        -1.3234889800848443e-23,
        6.879513959469504e-25,
        1.0
      ],
      "translation": [
        0.0,
        21.0009708404541,
        0.0
      ]
    },
    {
      "matrix": [
        2.540000567436224,
        8.930542589291273e-15,
        -9.548063754382833e-16,
        0.0,
        -9.548078304083734e-16,
        4.138186250258018e-07,
        -2.540000567436224,
        0.0,
        -8.930542433733514e-15,
        2.540000567436209,
        4.1381862502579943e-07,
        0.0,
        0.0,
        0.0,
        0.0,
        1.0
      ],
      "name": "Object_10"
    },
    {
      "mesh": 0,
      "name": "Object_11",
      "skin": 0
    },
    {
      "name": "Box001",
      "rotation": [
        -0.7071067094802856,
        -8.972295045616086e-23,
        -8.808851270207706e-23,
        0.7071068286895752
      ],
      "scale": [
        2.5400004386901855,
        2.5400004386901855,
        2.5400004386901855
      ]
    }
  ],
  "samplers": [
    {
      "magFilter": 9729,
      "minFilter": 9987,
      "wrapS": 10497,
      "wrapT": 10497
    }
  ],
  "scene": 0,
  "scenes": [
    {
      "name": "Sketchfab_Scene",
      "nodes": [
        0
      ]
    }
  ],
  "skins": [
    {
      "inverseBindMatrices": 4,
      "joints": [
        6,
        7,
        8,
        9
      ],
      "skeleton": 6
    }
  ],
  "textures": [
    {
      "sampler": 0,
      "source": 0
    }
  ]
}
